# File created by Blade
# Date/Time:  Wed Jan 21 17:21:31 2015
# Frame Rate: 120.000 fps
#------------------------------------------------------
:FULLY-SPECIFIED
:DEGREES
1067
root 20.897977 18.557253 -8.477369 -156.587882 17.808459 -188.862330
Spine 57.801404 23.173431 -6.421748
Head -34.199685 -4.526683 5.905197
LeftShoulder 30.449493 -52.942126 -7.556278
LeftArm 28.959037 21.536437 -57.881910
LeftForeArm -30.981037 0.000000 7.103192
LeftHand -4.188679 -0.000000 -6.950477
LeftHandThumb1 -26.253704 0.000000 33.147579
RightShoulder 21.672123 13.400539 -10.486639
RightArm 48.183817 25.520587 48.194483
RightForeArm -3.401381 -0.000000 10.975339
RightHand -6.219225 -0.000000 -1.055035
RightHandThumb1 -24.326973 -0.000000 -32.862282
LeftUpLeg -108.209575 3.965050 -11.330358
LeftLeg 55.055166 -0.000000 -0.000000
LeftFoot 12.862591 30.051190 5.333235
LeftToeBase 17.442487 -0.000000 -0.000000
RightUpLeg -27.132754 9.260431 5.191066
RightLeg 98.162119 -0.000000 -0.000000
RightFoot 35.961103 -14.197955 2.113658
RightToeBase 36.403464 -0.000000 -0.000000
1068
root 20.898694 18.537242 -8.301635 -156.859444 17.648881 -188.702968
Spine 58.149773 23.101990 -5.976539
Head -35.024917 -4.532655 5.820374
LeftShoulder 30.159576 -52.946893 -7.477074
LeftArm 29.150518 21.133235 -57.971585
LeftForeArm -30.659457 -0.000000 7.191502
LeftHand -4.055249 -0.000000 -6.880670
LeftHandThumb1 -26.253704 0.000000 33.147579
RightShoulder 21.900889 13.603719 -10.580457
RightArm 47.748109 25.837811 47.489155
RightForeArm -3.305811 -0.000000 10.686493
RightHand -5.833765 -0.000000 -0.232174
RightHandThumb1 -24.326973 -0.000000 -32.862282
LeftUpLeg -107.658919 3.983499 -11.058141
LeftLeg 54.168577 -0.000000 -0.000000
LeftFoot 13.341949 29.959734 5.528871
LeftToeBase 17.082091 -0.000000 -0.000000
RightUpLeg -27.160839 9.004598 5.590639
RightLeg 98.324953 -0.000000 -0.000000
RightFoot 35.143385 -13.820849 2.366224
RightToeBase 36.430622 -0.000000 -0.000000
1069
root 20.896262 18.517837 -8.121179 -157.101668 17.550682 -188.546173
Spine 58.451633 23.085467 -5.571410
Head -35.836478 -4.569048 5.722540
LeftShoulder 29.761472 -52.916927 -7.326555
LeftArm 29.404782 20.784153 -58.045947
LeftForeArm -30.441797 0.000000 7.309560
LeftHand -3.956227 -0.000000 -6.489704
LeftHandThumb1 -26.253704 0.000000 33.147579
RightShoulder 22.120028 13.782419 -10.739437
RightArm 47.314116 26.189986 46.926809
RightForeArm -3.430814 -0.000000 10.446290
RightHand -5.504411 -0.000000 0.425055
RightHandThumb1 -24.326973 -0.000000 -32.862282
LeftUpLeg -107.149886 4.039981 -10.791996
LeftLeg 53.286241 -0.000000 -0.000000
LeftFoot 13.777302 29.863423 5.703893
LeftToeBase 16.727278 -0.000000 -0.000000
RightUpLeg -27.249014 8.843199 5.965497
RightLeg 98.542320 -0.000000 -0.000000
RightFoot 34.618592 -13.751874 2.506549
RightToeBase 36.382776 -0.000000 -0.000000
1070
root 20.893521 18.496094 -7.949141 -157.379407 17.382744 -188.428651
Spine 58.785431 23.004622 -5.142971
Head -36.633969 -4.578105 5.636904
LeftShoulder 29.368756 -52.891622 -7.212241
LeftArm 29.585767 20.482024 -58.148227
LeftForeArm -30.145594 -0.000000 7.505621
LeftHand -3.823474 -0.000000 -6.234828
LeftHandThumb1 -26.253704 0.000000 33.147579
RightShoulder 22.314205 14.084399 -10.824836
RightArm 46.716801 26.361403 46.259689
RightForeArm -3.020595 -0.000000 10.236392
RightHand -5.176279 0.000000 1.456541
RightHandThumb1 -24.326973 -0.000000 -32.862282
LeftUpLeg -106.601660 4.019243 -10.538894
LeftLeg 52.415138 -0.000000 -0.000000
LeftFoot 14.090209 29.771169 5.827727
LeftToeBase 16.524900 -0.000000 -0.000000
RightUpLeg -27.289523 8.619757 6.343314
RightLeg 98.753089 -0.000000 -0.000000
RightFoot 34.517203 -14.100844 2.739632
RightToeBase 36.352467 -0.000000 -0.000000
1071
root 20.890217 18.475539 -7.772687 -157.627900 17.276168 -188.246457
Spine 59.100431 22.983956 -4.660274
Head -37.412867 -4.678061 5.505937
LeftShoulder 28.977587 -52.888662 -7.140419
LeftArm 29.667235 20.221534 -58.274609
LeftForeArm -30.040696 -0.000000 7.865419
LeftHand -3.883987 0.000000 -6.269614
LeftHandThumb1 -26.253704 0.000000 33.147579
RightShoulder 22.476056 14.273653 -11.012548
RightArm 46.186290 26.521929 45.621639
RightForeArm -3.290295 -0.000000 10.056509
RightHand -5.098091 -0.000000 2.229667
RightHandThumb1 -24.326973 -0.000000 -32.862282
LeftUpLeg -106.083868 4.072742 -10.253516
LeftLeg 51.538967 -0.000000 -0.000000
LeftFoot 14.485071 29.624957 6.033625
LeftToeBase 16.078368 -0.000000 -0.000000
RightUpLeg -27.364849 8.465354 6.755813
RightLeg 99.017975 -0.000000 -0.000000
RightFoot 34.754043 -14.489509 2.642023
RightToeBase 36.320656 -0.000000 -0.000000
1072
root 20.884541 18.449981 -7.600000 -157.876131 17.149458 -188.147330
Spine 59.334890 22.922858 -4.296671
Head -38.130846 -4.699309 5.373341
LeftShoulder 28.402037 -52.765831 -6.890260
LeftArm 29.791460 19.909690 -58.447251
LeftForeArm -29.944547 -0.000000 8.203552
LeftHand -3.675066 -0.000000 -5.991519
LeftHandThumb1 -26.253704 0.000000 33.147579
RightShoulder 22.696687 14.464316 -11.138836
RightArm 45.597678 26.718648 45.064391
RightForeArm -3.377747 0.000000 9.917573
RightHand -4.657793 0.000000 2.865561
RightHandThumb1 -24.326973 -0.000000 -32.862282
LeftUpLeg -105.597576 4.056774 -10.039156
LeftLeg 50.688696 -0.000000 -0.000000
LeftFoot 14.771665 29.610664 6.160017
LeftToeBase 15.877611 -0.000000 -0.000000
RightUpLeg -27.477095 8.269468 7.113197
RightLeg 99.347462 -0.000000 -0.000000
RightFoot 35.232541 -15.025422 2.558406
RightToeBase 36.244704 -0.000000 -0.000000
1073
root 20.873362 18.431940 -7.434014 -158.223692 17.022266 -188.060610
Spine 59.736245 22.863772 -3.806545
Head -38.833171 -4.813504 5.169328
LeftShoulder 27.983717 -52.693837 -6.807347
LeftArm 29.768031 19.594834 -58.706686
LeftForeArm -29.693160 -0.000000 8.680692
LeftHand -3.497120 -0.000000 -5.657360
LeftHandThumb1 -26.253704 0.000000 33.147579
RightShoulder 22.859497 14.525627 -11.319262
RightArm 45.024848 26.905639 44.306044
RightForeArm -3.545345 -0.000000 9.769626
RightHand -4.376309 -0.000000 3.852462
RightHandThumb1 -24.326973 -0.000000 -32.862282
LeftUpLeg -104.981465 4.045503 -9.794632
LeftLeg 49.820498 -0.000000 -0.000000
LeftFoot 14.950001 29.622851 6.129415
LeftToeBase 15.705935 -0.000000 -0.000000
RightUpLeg -27.494558 7.987407 7.420421
RightLeg 99.671503 -0.000000 -0.000000
RightFoot 35.796338 -15.686440 2.593336
RightToeBase 36.139274 -0.000000 -0.000000
